<svg xmlns="http://www.w3.org/2000/svg" xmlns:svg="http://www.w3.org/2000/svg" xmlns:xlink="http://www.w3.org/1999/xlink" id="svg5980" width="20" height="16" version="1.1"><defs id="defs5982"><linearGradient id="linearGradient3818"><stop id="stop3820" offset="0" stop-color="#000" stop-opacity="1"/><stop id="stop3822" offset=".659" stop-color="#000" stop-opacity="1"/><stop id="stop3824" offset="1" stop-color="#000" stop-opacity="0"/></linearGradient><linearGradient id="linearGradient3819"><stop id="stop3821" offset="0" stop-color="#bababa" stop-opacity="1"/><stop id="stop3823" offset="1" stop-color="#d5d5d5" stop-opacity="1"/></linearGradient><linearGradient id="linearGradient3853"><stop id="stop3855" offset="0" stop-color="#a0a0a0" stop-opacity="1"/><stop id="stop3857" offset="1" stop-color="#787878" stop-opacity="1"/></linearGradient><linearGradient id="linearGradient4002"><stop id="stop4004" offset="0" stop-color="#000" stop-opacity="1"/><stop id="stop4010" offset=".772" stop-color="#000" stop-opacity="1"/><stop id="stop4006" offset="1" stop-color="#000" stop-opacity="0"/></linearGradient><radialGradient id="radialGradient3817" cx="312.375" cy="290.25" r="7.333" fx="312.375" fy="290.25" gradientTransform="matrix(0.93735455,0,0,0.93735455,19.568871,18.182841)" gradientUnits="userSpaceOnUse" xlink:href="#linearGradient4002"/><radialGradient id="radialGradient3014" cx="312.375" cy="290.25" r="7.333" fx="312.375" fy="290.25" gradientTransform="matrix(0.93735455,0,0,0.93735455,19.568871,18.182841)" gradientUnits="userSpaceOnUse" xlink:href="#linearGradient3818"/><linearGradient id="linearGradient3016" x1="118.176" x2="103.924" y1="479.898" y2="479.898" gradientTransform="matrix(0,-1,1,0,-166.30724,401.40146)" gradientUnits="userSpaceOnUse" xlink:href="#linearGradient3853"/><linearGradient id="linearGradient3018" x1="7.487" x2="7.487" y1="27.873" y2="15.974" gradientTransform="translate(1.9999999,0)" gradientUnits="userSpaceOnUse" xlink:href="#linearGradient3819"/></defs><metadata id="metadata5985"/><g id="layer1" transform="translate(0,-16)"><g id="g3006" transform="matrix(0.84210525,0,0,0.84210525,1.5789473,5.0526297)"><path id="path5387-8-1" fill="url(#radialGradient3014)" fill-opacity="1" fill-rule="nonzero" stroke="none" stroke-width=".809" d="m 319.25,290.25 c 0,3.79696 -3.07804,6.875 -6.875,6.875 -3.79696,0 -6.875,-3.07804 -6.875,-6.875 0,-3.79696 3.07804,-6.875 6.875,-6.875 3.79696,0 6.875,3.07804 6.875,6.875 z" color="#000" display="inline" enable-background="accumulate" opacity=".15" overflow="visible" transform="matrix(1.3818182,0,0,1.3818182,-421.64546,-378.57273)" visibility="visible" style="marker:none"/><path id="path5387-8" fill="#ebebeb" fill-opacity="1" fill-rule="nonzero" stroke="url(#linearGradient3016)" stroke-dasharray="none" stroke-dashoffset="0" stroke-linecap="round" stroke-linejoin="round" stroke-miterlimit="4" stroke-opacity="1" stroke-width=".917" d="m 319.25,290.25 c 0,3.79696 -3.07804,6.875 -6.875,6.875 -3.79696,0 -6.875,-3.07804 -6.875,-6.875 0,-3.79696 3.07804,-6.875 6.875,-6.875 3.79696,0 6.875,3.07804 6.875,6.875 z" color="#000" display="inline" enable-background="accumulate" overflow="visible" transform="matrix(1.0909091,0,0,1.0909091,-330.77273,-294.63637)" visibility="visible" style="marker:none"/><path id="path3907-8" fill="#ddd" fill-opacity="1" stroke="none" d="M 11.844001,15.093876 9.9687499,21.96875 5.8513889,16.289267 c -0.846712,1.21453 -2.788889,4.336676 -2.788889,5.929483 0,2.613581 3.023705,4.720993 4.999748,6.421781 l 1.906502,-6.609281 3.9455161,5.718561 c 0.987249,-1.270018 3.085733,-4.23539 3.085733,-5.968561 0,-2.588835 -3.160985,-5.33957 -5.155998,-6.687374 z"/><path id="path3907" fill="url(#linearGradient3018)" fill-opacity="1" stroke="none" d="m 13.718749,16.03125 -3.7499991,5.9375 -5.40625,-4.15625 c -0.846712,1.21453 -1.5,2.813443 -1.5,4.40625 0,2.613581 1.148957,4.017962 3.125,5.71875 l 3.78125,-5.90625 5.4687491,4.3125 c 0.987249,-1.270018 1.5625,-2.829329 1.5625,-4.5625 0,-2.588835 -1.286237,-4.402196 -3.28125,-5.75 z" opacity=".6"/><path id="path5387-7" fill="none" stroke="#fff" stroke-dasharray="none" stroke-dashoffset="0" stroke-linecap="round" stroke-linejoin="round" stroke-miterlimit="4" stroke-opacity="1" stroke-width="1.058" d="m 319.25,290.25 c 0,3.79696 -3.07804,6.875 -6.875,6.875 -3.79696,0 -6.875,-3.07804 -6.875,-6.875 0,-3.79696 3.07804,-6.875 6.875,-6.875 3.79696,0 6.875,3.07804 6.875,6.875 z" color="#000" display="inline" enable-background="accumulate" opacity=".6" overflow="visible" transform="matrix(0.94545454,0,0,0.94545454,-285.33636,-252.41818)" visibility="visible" style="marker:none"/><path id="path3909" fill="#fff" fill-opacity="1" fill-rule="nonzero" stroke="none" stroke-width="1" d="m -6.7545868,12.691184 c 0,0.226088 -0.1832807,0.409369 -0.4093689,0.409369 -0.2260882,0 -0.4093689,-0.183281 -0.4093689,-0.409369 0,-0.226088 0.1832807,-0.409369 0.4093689,-0.409369 0.2260882,0 0.4093689,0.183281 0.4093689,0.409369 z" color="#bebebe" display="inline" enable-background="accumulate" overflow="visible" transform="translate(17.163955,9.3088161)" visibility="visible" style="marker:none"/></g></g></svg>